<svg width="60" height="60" viewBox="0 0 60 60" fill="none" xmlns="http://www.w3.org/2000/svg">
<g opacity="0.3">
<path d="M50 27.5002H57.5V32.5002H50V27.5002ZM2.5 27.5002H10V32.5002H2.5V27.5002ZM32.5 2.50024V10.0002H27.5V2.50024H32.5ZM12.3 8.75024L17.625 14.1002L14.075 17.6252L8.75 12.3252L12.3 8.75024ZM42.375 14.0752L47.675 8.75024L51.25 12.3252L45.925 17.6252L42.375 14.0752ZM30 15.0002C33.9782 15.0002 37.7936 16.5806 40.6066 19.3936C43.4197 22.2067 45 26.022 45 30.0002C45 35.5502 41.975 40.4002 37.5 43.0002V47.5002C37.5 48.1633 37.2366 48.7992 36.7678 49.268C36.2989 49.7369 35.663 50.0002 35 50.0002H25C24.337 50.0002 23.7011 49.7369 23.2322 49.268C22.7634 48.7992 22.5 48.1633 22.5 47.5002V43.0002C18.025 40.4002 15 35.5502 15 30.0002C15 26.022 16.5804 22.2067 19.3934 19.3936C22.2064 16.5806 26.0218 15.0002 30 15.0002ZM35 52.5002V55.0002C35 55.6633 34.7366 56.2992 34.2678 56.768C33.7989 57.2369 33.163 57.5002 32.5 57.5002H27.5C26.837 57.5002 26.2011 57.2369 25.7322 56.768C25.2634 56.2992 25 55.6633 25 55.0002V52.5002H35ZM27.5 45.0002H32.5V39.6752C36.825 38.5752 40 34.6502 40 30.0002C40 27.3481 38.9464 24.8045 37.0711 22.9292C35.1957 21.0538 32.6522 20.0002 30 20.0002C27.3478 20.0002 24.8043 21.0538 22.9289 22.9292C21.0536 24.8045 20 27.3481 20 30.0002C20 34.6502 23.175 38.5752 27.5 39.6752V45.0002Z" fill="white"/>
</g>
</svg>
