<svg width="60" height="60" viewBox="0 0 60 60" fill="none" xmlns="http://www.w3.org/2000/svg">
<g opacity="0.2">
<path d="M28.125 15C28.125 12.8451 28.981 10.7785 30.5048 9.25476C32.0285 7.73102 34.0951 6.875 36.25 6.875C38.4049 6.875 40.4715 7.73102 41.9952 9.25476C43.519 10.7785 44.375 12.8451 44.375 15C44.375 16.05 45.2 16.875 46.25 16.875C47.3 16.875 48.125 16.05 48.125 15V13.125H51.875V15C51.875 16.4918 51.2824 17.9226 50.2275 18.9775C49.1726 20.0324 47.7418 20.625 46.25 20.625C44.7582 20.625 43.3274 20.0324 42.2725 18.9775C41.2176 17.9226 40.625 16.4918 40.625 15C40.625 13.8397 40.1641 12.7269 39.3436 11.9064C38.5231 11.0859 37.4103 10.625 36.25 10.625C35.0897 10.625 33.9769 11.0859 33.1564 11.9064C32.3359 12.7269 31.875 13.8397 31.875 15H35V18.225C42.225 20.375 47.5 27.075 47.5 35C47.5 39.6413 45.6563 44.0925 42.3744 47.3744C39.0925 50.6563 34.6413 52.5 30 52.5C25.3587 52.5 20.9075 50.6563 17.6256 47.3744C14.3437 44.0925 12.5 39.6413 12.5 35C12.5 27.075 17.775 20.375 25 18.225V15H28.125ZM55 15H60V17.5H55V15ZM47.5 10V5H50V10H47.5ZM52.275 10.95L55.825 7.4L57.6 9.175L54.05 12.725L52.275 10.95Z" fill="white"/>
</g>
</svg>
