<svg width="28" height="28" viewBox="0 0 28 28" fill="none" xmlns="http://www.w3.org/2000/svg">
<path d="M19.8137 16.6667C19.9203 15.7867 20.0003 14.9067 20.0003 14.0001C20.0003 13.0934 19.9203 12.2134 19.8137 11.3334H24.3203C24.5337 12.1867 24.667 13.0801 24.667 14.0001C24.667 14.9201 24.5337 15.8134 24.3203 16.6667M17.4537 24.0801C18.2537 22.6001 18.867 21.0001 19.2937 19.3334H23.227C21.947 21.5334 19.907 23.2401 17.4537 24.0801ZM17.1203 16.6667H10.8803C10.747 15.7867 10.667 14.9067 10.667 14.0001C10.667 13.0934 10.747 12.2001 10.8803 11.3334H17.1203C17.2403 12.2001 17.3337 13.0934 17.3337 14.0001C17.3337 14.9067 17.2403 15.7867 17.1203 16.6667ZM14.0003 24.6134C12.8937 23.0134 12.0003 21.2401 11.4537 19.3334H16.547C16.0003 21.2401 15.107 23.0134 14.0003 24.6134ZM8.66699 8.66675H4.77366C6.04033 6.45341 8.09366 4.74675 10.5337 3.92008C9.73366 5.40008 9.13366 7.00008 8.66699 8.66675ZM4.77366 19.3334H8.66699C9.13366 21.0001 9.73366 22.6001 10.5337 24.0801C8.09366 23.2401 6.04033 21.5334 4.77366 19.3334ZM3.68033 16.6667C3.46699 15.8134 3.33366 14.9201 3.33366 14.0001C3.33366 13.0801 3.46699 12.1867 3.68033 11.3334H8.18699C8.08033 12.2134 8.00033 13.0934 8.00033 14.0001C8.00033 14.9067 8.08033 15.7867 8.18699 16.6667M14.0003 3.37341C15.107 4.97341 16.0003 6.76008 16.547 8.66675H11.4537C12.0003 6.76008 12.8937 4.97341 14.0003 3.37341ZM23.227 8.66675H19.2937C18.867 7.00008 18.2537 5.40008 17.4537 3.92008C19.907 4.76008 21.947 6.45341 23.227 8.66675ZM14.0003 0.666748C6.62699 0.666748 0.666992 6.66675 0.666992 14.0001C0.666992 17.5363 2.07175 20.9277 4.57223 23.4282C5.81035 24.6663 7.2802 25.6484 8.89788 26.3185C10.5156 26.9885 12.2494 27.3334 14.0003 27.3334C17.5365 27.3334 20.9279 25.9287 23.4284 23.4282C25.9289 20.9277 27.3337 17.5363 27.3337 14.0001C27.3337 12.2491 26.9888 10.5153 26.3187 8.89763C25.6487 7.27996 24.6665 5.81011 23.4284 4.57199C22.1903 3.33388 20.7204 2.35175 19.1028 1.68169C17.4851 1.01162 15.7513 0.666748 14.0003 0.666748Z" fill="black"/>
</svg>
