<svg width="27" height="30" viewBox="0 0 27 30" fill="none" xmlns="http://www.w3.org/2000/svg">
<path d="M16 16.3333H18V20.0933L21.2533 21.9732L20.2533 23.7066L16 21.2533V16.3333ZM21.3333 9.66658H2.66667V24.3333H8.89333C8.32 23.1199 8 21.7599 8 20.3333C8 17.8579 8.98333 15.4839 10.7337 13.7336C12.484 11.9832 14.858 10.9999 17.3333 10.9999C18.76 10.9999 20.12 11.3199 21.3333 11.8933V9.66658ZM2.66667 26.9999C1.18667 26.9999 0 25.7999 0 24.3333V5.66658C0 4.18658 1.18667 2.99992 2.66667 2.99992H4V0.333252H6.66667V2.99992H17.3333V0.333252H20V2.99992H21.3333C22.0406 2.99992 22.7189 3.28087 23.219 3.78097C23.719 4.28106 24 4.95934 24 5.66658V13.7999C25.6533 15.4799 26.6667 17.7866 26.6667 20.3333C26.6667 22.8086 25.6833 25.1826 23.933 26.9329C22.1827 28.6833 19.8087 29.6666 17.3333 29.6666C14.7867 29.6666 12.48 28.6532 10.8 26.9999H2.66667ZM17.3333 13.8666C15.6183 13.8666 13.9734 14.5479 12.7607 15.7606C11.548 16.9734 10.8667 18.6182 10.8667 20.3333C10.8667 23.9066 13.76 26.7999 17.3333 26.7999C18.1825 26.7999 19.0234 26.6327 19.808 26.3077C20.5926 25.9827 21.3055 25.5064 21.906 24.9059C22.5064 24.3054 22.9828 23.5925 23.3078 22.8079C23.6327 22.0234 23.8 21.1825 23.8 20.3333C23.8 16.7599 20.9067 13.8666 17.3333 13.8666Z" fill="black"/>
</svg>
